<mxfile host="app.diagrams.net" agent="Mozilla/5.0 (Windows NT 10.0; Win64; x64) AppleWebKit/537.36 (KHTML, like Gecko) Chrome/128.0.0.0 Safari/537.36" version="24.7.14" pages="4">
  <diagram name="1" id="hc-NypOwx5TnzpEW4Dtn">
    <mxGraphModel grid="1" page="1" gridSize="10" guides="1" tooltips="1" connect="1" arrows="1" fold="1" pageScale="1" pageWidth="1920" pageHeight="1200" math="0" shadow="0">
      <root>
        <mxCell id="0" />
        <mxCell id="1" parent="0" />
        <mxCell id="dOaFWuj75hrczUp0cRqz-1" value="Diagram Heading" style="shape=umlFrame;whiteSpace=wrap;html=1;pointerEvents=0;recursiveResize=0;container=1;collapsible=0;width=160;" vertex="1" parent="1">
          <mxGeometry x="520" y="320" width="560" height="680" as="geometry" />
        </mxCell>
        <mxCell id="dOaFWuj75hrczUp0cRqz-17" value="Регистрация" style="ellipse;" vertex="1" parent="dOaFWuj75hrczUp0cRqz-1">
          <mxGeometry x="40" y="590" width="120" height="60" as="geometry" />
        </mxCell>
        <mxCell id="dOaFWuj75hrczUp0cRqz-18" value="Заказ товара" style="ellipse;" vertex="1" parent="dOaFWuj75hrczUp0cRqz-1">
          <mxGeometry x="60" y="60" width="120" height="60" as="geometry" />
        </mxCell>
        <mxCell id="dOaFWuj75hrczUp0cRqz-21" value="Авторизация" style="ellipse;" vertex="1" parent="dOaFWuj75hrczUp0cRqz-1">
          <mxGeometry x="40" y="460" width="120" height="60" as="geometry" />
        </mxCell>
        <mxCell id="dOaFWuj75hrczUp0cRqz-40" style="rounded=0;orthogonalLoop=1;jettySize=auto;html=1;endArrow=block;endFill=0;" edge="1" parent="dOaFWuj75hrczUp0cRqz-1" source="dOaFWuj75hrczUp0cRqz-25" target="dOaFWuj75hrczUp0cRqz-18">
          <mxGeometry relative="1" as="geometry" />
        </mxCell>
        <mxCell id="dOaFWuj75hrczUp0cRqz-25" value="Выбор товара&#xa;из каталога&#xa;и указать&#xa;количество и&#xa;адрес доставки" style="ellipse;" vertex="1" parent="dOaFWuj75hrczUp0cRqz-1">
          <mxGeometry x="270" y="10" width="220" height="110" as="geometry" />
        </mxCell>
        <mxCell id="dOaFWuj75hrczUp0cRqz-26" value="Просмотр всех&#xa;заказов" style="ellipse;" vertex="1" parent="dOaFWuj75hrczUp0cRqz-1">
          <mxGeometry x="420" y="290" width="120" height="60" as="geometry" />
        </mxCell>
        <mxCell id="dOaFWuj75hrczUp0cRqz-29" value="Изменение статуса заказа" style="ellipse;" vertex="1" parent="dOaFWuj75hrczUp0cRqz-1">
          <mxGeometry x="150" y="280" width="180" height="90" as="geometry" />
        </mxCell>
        <mxCell id="dOaFWuj75hrczUp0cRqz-53" value="Просмотр своих&#xa;заказов" style="ellipse;" vertex="1" parent="dOaFWuj75hrczUp0cRqz-1">
          <mxGeometry x="50" y="200" width="120" height="60" as="geometry" />
        </mxCell>
        <mxCell id="dOaFWuj75hrczUp0cRqz-56" value="&amp;lt;&amp;lt;extend&amp;gt;&amp;gt;" style="endArrow=none;startArrow=open;endFill=0;startFill=0;endSize=8;html=1;verticalAlign=bottom;dashed=1;labelBackgroundColor=none;rounded=0;" edge="1" parent="dOaFWuj75hrczUp0cRqz-1" source="dOaFWuj75hrczUp0cRqz-26" target="dOaFWuj75hrczUp0cRqz-29">
          <mxGeometry x="0.0032" width="160" relative="1" as="geometry">
            <mxPoint x="330" y="430" as="sourcePoint" />
            <mxPoint x="490" y="430" as="targetPoint" />
            <mxPoint as="offset" />
          </mxGeometry>
        </mxCell>
        <mxCell id="dOaFWuj75hrczUp0cRqz-61" style="rounded=0;orthogonalLoop=1;jettySize=auto;html=1;endArrow=none;endFill=0;dashed=1;dashPattern=1 4;" edge="1" parent="dOaFWuj75hrczUp0cRqz-1" source="dOaFWuj75hrczUp0cRqz-59">
          <mxGeometry relative="1" as="geometry">
            <mxPoint x="380" y="320" as="targetPoint" />
          </mxGeometry>
        </mxCell>
        <mxCell id="dOaFWuj75hrczUp0cRqz-59" value="Условие:&lt;div&gt;статус заказа == новое&lt;/div&gt;" style="shape=note2;boundedLbl=1;whiteSpace=wrap;html=1;size=25;verticalAlign=top;align=left;spacingLeft=5;" vertex="1" parent="dOaFWuj75hrczUp0cRqz-1">
          <mxGeometry x="300" y="180" width="160" height="60" as="geometry" />
        </mxCell>
        <mxCell id="dOaFWuj75hrczUp0cRqz-60" value="&amp;lt;&amp;lt;&lt;span style=&quot;font-size: 11px; text-align: center; text-wrap: nowrap;&quot;&gt;extend&lt;/span&gt;&amp;gt;&amp;gt;" style="resizeWidth=1;part=1;strokeColor=none;fillColor=none;align=left;spacingLeft=5;html=1;whiteSpace=wrap;" vertex="1" parent="dOaFWuj75hrczUp0cRqz-59">
          <mxGeometry width="160" height="25" relative="1" as="geometry" />
        </mxCell>
        <mxCell id="dOaFWuj75hrczUp0cRqz-38" style="rounded=0;orthogonalLoop=1;jettySize=auto;html=1;endArrow=none;endFill=0;" edge="1" parent="1" source="dOaFWuj75hrczUp0cRqz-2" target="dOaFWuj75hrczUp0cRqz-21">
          <mxGeometry relative="1" as="geometry" />
        </mxCell>
        <mxCell id="dOaFWuj75hrczUp0cRqz-39" style="rounded=0;orthogonalLoop=1;jettySize=auto;html=1;endArrow=none;endFill=0;" edge="1" parent="1" source="dOaFWuj75hrczUp0cRqz-2" target="dOaFWuj75hrczUp0cRqz-18">
          <mxGeometry relative="1" as="geometry" />
        </mxCell>
        <mxCell id="dOaFWuj75hrczUp0cRqz-54" style="rounded=0;orthogonalLoop=1;jettySize=auto;html=1;endArrow=none;endFill=0;" edge="1" parent="1" source="dOaFWuj75hrczUp0cRqz-2" target="dOaFWuj75hrczUp0cRqz-53">
          <mxGeometry relative="1" as="geometry" />
        </mxCell>
        <mxCell id="dOaFWuj75hrczUp0cRqz-2" value="Пользователь" style="shape=umlActor;verticalLabelPosition=bottom;verticalAlign=top;html=1;" vertex="1" parent="1">
          <mxGeometry x="390" y="490" width="30" height="60" as="geometry" />
        </mxCell>
        <mxCell id="dOaFWuj75hrczUp0cRqz-34" style="rounded=0;orthogonalLoop=1;jettySize=auto;html=1;entryX=0;entryY=0.5;entryDx=0;entryDy=0;endArrow=none;endFill=0;" edge="1" parent="1" source="dOaFWuj75hrczUp0cRqz-3" target="dOaFWuj75hrczUp0cRqz-17">
          <mxGeometry relative="1" as="geometry" />
        </mxCell>
        <mxCell id="dOaFWuj75hrczUp0cRqz-35" style="rounded=0;orthogonalLoop=1;jettySize=auto;html=1;endArrow=none;endFill=0;" edge="1" parent="1" source="dOaFWuj75hrczUp0cRqz-3" target="dOaFWuj75hrczUp0cRqz-21">
          <mxGeometry relative="1" as="geometry" />
        </mxCell>
        <mxCell id="dOaFWuj75hrczUp0cRqz-3" value="Гость" style="shape=umlActor;verticalLabelPosition=bottom;verticalAlign=top;html=1;" vertex="1" parent="1">
          <mxGeometry x="410" y="810" width="30" height="60" as="geometry" />
        </mxCell>
        <mxCell id="dOaFWuj75hrczUp0cRqz-41" style="rounded=0;orthogonalLoop=1;jettySize=auto;html=1;endArrow=none;endFill=0;" edge="1" parent="1" source="dOaFWuj75hrczUp0cRqz-4" target="dOaFWuj75hrczUp0cRqz-21">
          <mxGeometry relative="1" as="geometry" />
        </mxCell>
        <mxCell id="dOaFWuj75hrczUp0cRqz-42" style="rounded=0;orthogonalLoop=1;jettySize=auto;html=1;endArrow=none;endFill=0;" edge="1" parent="1" source="dOaFWuj75hrczUp0cRqz-4" target="dOaFWuj75hrczUp0cRqz-26">
          <mxGeometry relative="1" as="geometry" />
        </mxCell>
        <mxCell id="dOaFWuj75hrczUp0cRqz-4" value="Админ" style="shape=umlActor;verticalLabelPosition=bottom;verticalAlign=top;html=1;" vertex="1" parent="1">
          <mxGeometry x="1130" y="730" width="30" height="60" as="geometry" />
        </mxCell>
      </root>
    </mxGraphModel>
  </diagram>
  <diagram id="2BQgoz2k4Nq6AF4fT7c-" name="2">
    <mxGraphModel grid="1" page="1" gridSize="10" guides="1" tooltips="1" connect="1" arrows="1" fold="1" pageScale="1" pageWidth="1920" pageHeight="1200" math="0" shadow="0">
      <root>
        <mxCell id="0" />
        <mxCell id="1" parent="0" />
        <mxCell id="jkTlSePeu8T83e2XYOU7-1" style="shape=partialRectangle;html=1;whiteSpace=wrap;collapsible=0;dropTarget=0;pointerEvents=0;top=1;left=1;bottom=1;right=1;points=[[0,0.5],[1,0.5]];portConstraint=eastwest;" vertex="1" parent="1">
          <mxGeometry x="230" y="700" width="800" height="170" as="geometry" />
        </mxCell>
        <mxCell id="jkTlSePeu8T83e2XYOU7-2" value="Гость" style="shape=partialRectangle;html=1;whiteSpace=wrap;connectable=0;fillColor=none;top=1;left=1;bottom=1;right=1;overflow=hidden;horizontal=0;" vertex="1" parent="jkTlSePeu8T83e2XYOU7-1">
          <mxGeometry width="33.68421052631579" height="170" as="geometry">
            <mxRectangle width="40" height="170" as="alternateBounds" />
          </mxGeometry>
        </mxCell>
        <mxCell id="jkTlSePeu8T83e2XYOU7-3" style="shape=partialRectangle;html=1;whiteSpace=wrap;connectable=0;fillColor=none;top=1;left=1;bottom=1;right=1;overflow=hidden;" vertex="1" parent="jkTlSePeu8T83e2XYOU7-1">
          <mxGeometry x="33.68421052631579" width="766.3157894736842" height="170" as="geometry">
            <mxRectangle width="910" height="170" as="alternateBounds" />
          </mxGeometry>
        </mxCell>
        <mxCell id="zpQBh0LRrzW71kcbncbB-22" value="s" style="shape=table;html=1;whiteSpace=wrap;startSize=20;container=1;collapsible=0;childLayout=tableLayout;fillColor=none;swimlaneFillColor=#ffffff;strokeColor=none;" vertex="1" parent="1">
          <mxGeometry x="220" y="205" width="1640" height="460" as="geometry" />
        </mxCell>
        <mxCell id="zpQBh0LRrzW71kcbncbB-27" value="" style="shape=partialRectangle;html=1;whiteSpace=wrap;collapsible=0;dropTarget=0;pointerEvents=0;fillColor=none;top=1;left=1;bottom=1;right=1;points=[[0,0.5],[1,0.5]];portConstraint=eastwest;" vertex="1" parent="zpQBh0LRrzW71kcbncbB-22">
          <mxGeometry y="20" width="1640" height="220" as="geometry" />
        </mxCell>
        <mxCell id="zpQBh0LRrzW71kcbncbB-28" value="Админ" style="shape=partialRectangle;html=1;whiteSpace=wrap;connectable=0;fillColor=none;top=1;left=1;bottom=1;right=1;overflow=hidden;horizontal=0;" vertex="1" parent="zpQBh0LRrzW71kcbncbB-27">
          <mxGeometry width="40" height="220" as="geometry">
            <mxRectangle width="40" height="220" as="alternateBounds" />
          </mxGeometry>
        </mxCell>
        <mxCell id="zpQBh0LRrzW71kcbncbB-30" value="" style="shape=partialRectangle;html=1;whiteSpace=wrap;connectable=0;fillColor=none;top=1;left=1;bottom=1;right=1;overflow=hidden;" vertex="1" parent="zpQBh0LRrzW71kcbncbB-27">
          <mxGeometry x="40" width="1600" height="220" as="geometry">
            <mxRectangle width="1600" height="220" as="alternateBounds" />
          </mxGeometry>
        </mxCell>
        <mxCell id="zpQBh0LRrzW71kcbncbB-31" value="" style="shape=partialRectangle;html=1;whiteSpace=wrap;collapsible=0;dropTarget=0;pointerEvents=0;fillColor=none;top=1;left=1;bottom=1;right=1;points=[[0,0.5],[1,0.5]];portConstraint=eastwest;" vertex="1" parent="zpQBh0LRrzW71kcbncbB-22">
          <mxGeometry y="240" width="1640" height="220" as="geometry" />
        </mxCell>
        <mxCell id="zpQBh0LRrzW71kcbncbB-32" value="Пользователь" style="shape=partialRectangle;html=1;whiteSpace=wrap;connectable=0;fillColor=none;top=1;left=1;bottom=1;right=1;overflow=hidden;horizontal=0;" vertex="1" parent="zpQBh0LRrzW71kcbncbB-31">
          <mxGeometry width="40" height="220" as="geometry">
            <mxRectangle width="40" height="220" as="alternateBounds" />
          </mxGeometry>
        </mxCell>
        <mxCell id="zpQBh0LRrzW71kcbncbB-34" value="" style="shape=partialRectangle;html=1;whiteSpace=wrap;connectable=0;fillColor=none;top=1;left=1;bottom=1;right=1;overflow=hidden;" vertex="1" parent="zpQBh0LRrzW71kcbncbB-31">
          <mxGeometry x="40" width="1600" height="220" as="geometry">
            <mxRectangle width="1600" height="220" as="alternateBounds" />
          </mxGeometry>
        </mxCell>
        <mxCell id="jkTlSePeu8T83e2XYOU7-4" style="edgeStyle=orthogonalEdgeStyle;rounded=0;orthogonalLoop=1;jettySize=auto;html=1;endArrow=open;endFill=0;" edge="1" parent="1" source="XhYp7p3oGGuHAlWRiJYu-1" target="dbOsJFISRweaIFSGTA1j-10">
          <mxGeometry relative="1" as="geometry" />
        </mxCell>
        <mxCell id="XhYp7p3oGGuHAlWRiJYu-1" value="" style="ellipse;fillColor=strokeColor;html=1;" vertex="1" parent="1">
          <mxGeometry x="290" y="550" width="30" height="30" as="geometry" />
        </mxCell>
        <mxCell id="dbOsJFISRweaIFSGTA1j-1" style="rounded=0;orthogonalLoop=1;jettySize=auto;html=1;endArrow=open;endFill=0;" edge="1" parent="1" source="XhYp7p3oGGuHAlWRiJYu-3" target="XhYp7p3oGGuHAlWRiJYu-21">
          <mxGeometry relative="1" as="geometry" />
        </mxCell>
        <mxCell id="XhYp7p3oGGuHAlWRiJYu-3" value="" style="ellipse;fillColor=strokeColor;html=1;" vertex="1" parent="1">
          <mxGeometry x="290" y="820" width="30" height="30" as="geometry" />
        </mxCell>
        <mxCell id="XhYp7p3oGGuHAlWRiJYu-4" value="" style="ellipse;html=1;shape=endState;fillColor=strokeColor;" vertex="1" parent="1">
          <mxGeometry x="970" y="820" width="30" height="30" as="geometry" />
        </mxCell>
        <mxCell id="dbOsJFISRweaIFSGTA1j-2" style="edgeStyle=orthogonalEdgeStyle;rounded=0;orthogonalLoop=1;jettySize=auto;html=1;endArrow=open;endFill=0;" edge="1" parent="1" source="XhYp7p3oGGuHAlWRiJYu-5" target="XhYp7p3oGGuHAlWRiJYu-25">
          <mxGeometry relative="1" as="geometry">
            <Array as="points">
              <mxPoint x="490" y="765" />
            </Array>
          </mxGeometry>
        </mxCell>
        <mxCell id="dbOsJFISRweaIFSGTA1j-3" value="Если пользователь не&lt;div&gt;&lt;div&gt;зарегистрирован&lt;/div&gt;&lt;/div&gt;" style="edgeLabel;html=1;align=center;verticalAlign=middle;resizable=0;points=[];" connectable="0" vertex="1" parent="dbOsJFISRweaIFSGTA1j-2">
          <mxGeometry x="0.0016" y="1" relative="1" as="geometry">
            <mxPoint x="25" y="-24" as="offset" />
          </mxGeometry>
        </mxCell>
        <mxCell id="XhYp7p3oGGuHAlWRiJYu-5" value="" style="rhombus;aspect=fixed;verticalAlign=middle;" vertex="1" parent="1">
          <mxGeometry x="480" y="825" width="20" height="20" as="geometry" />
        </mxCell>
        <mxCell id="XhYp7p3oGGuHAlWRiJYu-6" value="" style="endArrow=open;html=1;rounded=0;align=center;verticalAlign=bottom;labelBackgroundColor=none;exitX=1;exitY=0.5;exitDx=0;exitDy=0;endFill=0;" edge="1" parent="1" source="XhYp7p3oGGuHAlWRiJYu-21" target="XhYp7p3oGGuHAlWRiJYu-5">
          <mxGeometry relative="1" as="geometry">
            <mxPoint x="400" y="775" as="sourcePoint" />
          </mxGeometry>
        </mxCell>
        <mxCell id="XhYp7p3oGGuHAlWRiJYu-7" value="" style="endArrow=open;html=1;rounded=0;align=center;verticalAlign=bottom;labelBackgroundColor=none;entryX=0;entryY=0.5;entryDx=0;entryDy=0;edgeStyle=orthogonalEdgeStyle;endFill=0;" edge="1" parent="1" source="XhYp7p3oGGuHAlWRiJYu-5" target="XhYp7p3oGGuHAlWRiJYu-26">
          <mxGeometry relative="1" as="geometry">
            <mxPoint x="540" y="775" as="targetPoint" />
          </mxGeometry>
        </mxCell>
        <mxCell id="XhYp7p3oGGuHAlWRiJYu-22" value="Если&lt;div&gt;пользователь&lt;div&gt;зарегистрирован&lt;/div&gt;&lt;/div&gt;" style="edgeLabel;html=1;align=center;verticalAlign=middle;resizable=0;points=[];" connectable="0" vertex="1" parent="XhYp7p3oGGuHAlWRiJYu-7">
          <mxGeometry x="-0.4167" relative="1" as="geometry">
            <mxPoint x="60" y="-25" as="offset" />
          </mxGeometry>
        </mxCell>
        <mxCell id="XhYp7p3oGGuHAlWRiJYu-21" value="Войти&amp;nbsp;на сайт" style="html=1;align=center;verticalAlign=top;rounded=1;absoluteArcSize=1;arcSize=10;dashed=0;whiteSpace=wrap;" vertex="1" parent="1">
          <mxGeometry x="350" y="820" width="90" height="30" as="geometry" />
        </mxCell>
        <mxCell id="dbOsJFISRweaIFSGTA1j-4" style="edgeStyle=orthogonalEdgeStyle;rounded=0;orthogonalLoop=1;jettySize=auto;html=1;endArrow=open;endFill=0;" edge="1" parent="1" source="XhYp7p3oGGuHAlWRiJYu-25" target="XhYp7p3oGGuHAlWRiJYu-26">
          <mxGeometry relative="1" as="geometry" />
        </mxCell>
        <mxCell id="XhYp7p3oGGuHAlWRiJYu-25" value="Зарегистртроваться" style="html=1;align=center;verticalAlign=top;rounded=1;absoluteArcSize=1;arcSize=10;dashed=0;whiteSpace=wrap;" vertex="1" parent="1">
          <mxGeometry x="680" y="750" width="130" height="30" as="geometry" />
        </mxCell>
        <mxCell id="dbOsJFISRweaIFSGTA1j-5" style="edgeStyle=orthogonalEdgeStyle;rounded=0;orthogonalLoop=1;jettySize=auto;html=1;endArrow=open;endFill=0;" edge="1" parent="1" source="XhYp7p3oGGuHAlWRiJYu-26" target="XhYp7p3oGGuHAlWRiJYu-4">
          <mxGeometry relative="1" as="geometry" />
        </mxCell>
        <mxCell id="XhYp7p3oGGuHAlWRiJYu-26" value="Авторизироваться" style="html=1;align=center;verticalAlign=top;rounded=1;absoluteArcSize=1;arcSize=10;dashed=0;whiteSpace=wrap;" vertex="1" parent="1">
          <mxGeometry x="820" y="820" width="120" height="30" as="geometry" />
        </mxCell>
        <mxCell id="jkTlSePeu8T83e2XYOU7-31" style="edgeStyle=orthogonalEdgeStyle;rounded=0;orthogonalLoop=1;jettySize=auto;html=1;endArrow=open;endFill=0;" edge="1" parent="1" source="dbOsJFISRweaIFSGTA1j-8" target="1IMFi2n1XOwy3tBd0wlQ-4">
          <mxGeometry relative="1" as="geometry">
            <mxPoint x="1360" y="528" as="targetPoint" />
          </mxGeometry>
        </mxCell>
        <mxCell id="dbOsJFISRweaIFSGTA1j-8" value="Посмотреть&lt;div&gt;статус заказа&lt;/div&gt;" style="html=1;align=center;verticalAlign=top;rounded=1;absoluteArcSize=1;arcSize=10;dashed=0;whiteSpace=wrap;" vertex="1" parent="1">
          <mxGeometry x="1190" y="505" width="90" height="45" as="geometry" />
        </mxCell>
        <mxCell id="jkTlSePeu8T83e2XYOU7-16" style="edgeStyle=orthogonalEdgeStyle;rounded=0;orthogonalLoop=1;jettySize=auto;html=1;endArrow=open;endFill=0;" edge="1" parent="1" source="dbOsJFISRweaIFSGTA1j-9" target="jkTlSePeu8T83e2XYOU7-15">
          <mxGeometry relative="1" as="geometry" />
        </mxCell>
        <mxCell id="dbOsJFISRweaIFSGTA1j-9" value="Просмотреть товар" style="html=1;align=center;verticalAlign=top;rounded=1;absoluteArcSize=1;arcSize=10;dashed=0;whiteSpace=wrap;" vertex="1" parent="1">
          <mxGeometry x="560" y="500" width="100" height="40" as="geometry" />
        </mxCell>
        <mxCell id="jkTlSePeu8T83e2XYOU7-9" style="edgeStyle=orthogonalEdgeStyle;rounded=0;orthogonalLoop=1;jettySize=auto;html=1;endArrow=open;endFill=0;" edge="1" parent="1" source="dbOsJFISRweaIFSGTA1j-10" target="jkTlSePeu8T83e2XYOU7-8">
          <mxGeometry relative="1" as="geometry" />
        </mxCell>
        <mxCell id="dbOsJFISRweaIFSGTA1j-10" value="Войти на сайт" style="html=1;align=center;verticalAlign=top;rounded=1;absoluteArcSize=1;arcSize=10;dashed=0;whiteSpace=wrap;" vertex="1" parent="1">
          <mxGeometry x="360" y="550" width="90" height="30" as="geometry" />
        </mxCell>
        <mxCell id="jkTlSePeu8T83e2XYOU7-10" style="rounded=0;orthogonalLoop=1;jettySize=auto;html=1;entryX=0;entryY=0.5;entryDx=0;entryDy=0;endArrow=open;endFill=0;" edge="1" parent="1" source="jkTlSePeu8T83e2XYOU7-8" target="dbOsJFISRweaIFSGTA1j-9">
          <mxGeometry relative="1" as="geometry" />
        </mxCell>
        <mxCell id="jkTlSePeu8T83e2XYOU7-12" style="rounded=0;orthogonalLoop=1;jettySize=auto;html=1;endArrow=open;endFill=0;" edge="1" parent="1" source="jkTlSePeu8T83e2XYOU7-8" target="jkTlSePeu8T83e2XYOU7-11">
          <mxGeometry relative="1" as="geometry" />
        </mxCell>
        <mxCell id="jkTlSePeu8T83e2XYOU7-8" value="" style="rhombus;" vertex="1" parent="1">
          <mxGeometry x="475" y="550" width="30" height="30" as="geometry" />
        </mxCell>
        <mxCell id="1IMFi2n1XOwy3tBd0wlQ-5" style="edgeStyle=orthogonalEdgeStyle;rounded=0;orthogonalLoop=1;jettySize=auto;html=1;endArrow=open;endFill=0;" edge="1" parent="1" source="jkTlSePeu8T83e2XYOU7-11" target="1IMFi2n1XOwy3tBd0wlQ-1">
          <mxGeometry relative="1" as="geometry" />
        </mxCell>
        <mxCell id="jkTlSePeu8T83e2XYOU7-11" value="Просмотреть заказы" style="html=1;align=center;verticalAlign=top;rounded=1;absoluteArcSize=1;arcSize=10;dashed=0;whiteSpace=wrap;" vertex="1" parent="1">
          <mxGeometry x="560" y="570" width="100" height="40" as="geometry" />
        </mxCell>
        <mxCell id="jkTlSePeu8T83e2XYOU7-20" style="edgeStyle=orthogonalEdgeStyle;rounded=0;orthogonalLoop=1;jettySize=auto;html=1;entryX=0;entryY=0.5;entryDx=0;entryDy=0;endArrow=open;endFill=0;" edge="1" parent="1" source="jkTlSePeu8T83e2XYOU7-15" target="jkTlSePeu8T83e2XYOU7-19">
          <mxGeometry relative="1" as="geometry" />
        </mxCell>
        <mxCell id="jkTlSePeu8T83e2XYOU7-15" value="Создать&lt;div&gt;заказа&lt;/div&gt;" style="html=1;align=center;verticalAlign=top;rounded=1;absoluteArcSize=1;arcSize=10;dashed=0;whiteSpace=wrap;" vertex="1" parent="1">
          <mxGeometry x="700" y="500" width="100" height="40" as="geometry" />
        </mxCell>
        <mxCell id="jkTlSePeu8T83e2XYOU7-22" style="edgeStyle=orthogonalEdgeStyle;rounded=0;orthogonalLoop=1;jettySize=auto;html=1;endArrow=open;endFill=0;" edge="1" parent="1" source="jkTlSePeu8T83e2XYOU7-19" target="jkTlSePeu8T83e2XYOU7-21">
          <mxGeometry relative="1" as="geometry" />
        </mxCell>
        <mxCell id="jkTlSePeu8T83e2XYOU7-19" value="Посмотреть заказы" style="html=1;align=center;verticalAlign=top;rounded=1;absoluteArcSize=1;arcSize=10;dashed=0;whiteSpace=wrap;" vertex="1" parent="1">
          <mxGeometry x="850" y="320" width="90" height="40" as="geometry" />
        </mxCell>
        <mxCell id="jkTlSePeu8T83e2XYOU7-24" style="edgeStyle=orthogonalEdgeStyle;rounded=0;orthogonalLoop=1;jettySize=auto;html=1;endArrow=open;endFill=0;" edge="1" parent="1" source="jkTlSePeu8T83e2XYOU7-21">
          <mxGeometry relative="1" as="geometry">
            <mxPoint x="1100" y="285" as="targetPoint" />
            <Array as="points">
              <mxPoint x="985" y="285" />
            </Array>
          </mxGeometry>
        </mxCell>
        <mxCell id="jkTlSePeu8T83e2XYOU7-25" value="Если товар без&lt;div&gt;статуса: &quot;новое&quot;&lt;/div&gt;" style="edgeLabel;html=1;align=center;verticalAlign=middle;resizable=0;points=[];" connectable="0" vertex="1" parent="jkTlSePeu8T83e2XYOU7-24">
          <mxGeometry x="-0.1958" relative="1" as="geometry">
            <mxPoint y="-15" as="offset" />
          </mxGeometry>
        </mxCell>
        <mxCell id="jkTlSePeu8T83e2XYOU7-27" style="edgeStyle=orthogonalEdgeStyle;rounded=0;orthogonalLoop=1;jettySize=auto;html=1;entryX=0;entryY=0.5;entryDx=0;entryDy=0;endArrow=open;endFill=0;" edge="1" parent="1" source="jkTlSePeu8T83e2XYOU7-21" target="jkTlSePeu8T83e2XYOU7-26">
          <mxGeometry relative="1" as="geometry">
            <Array as="points">
              <mxPoint x="985" y="400" />
            </Array>
          </mxGeometry>
        </mxCell>
        <mxCell id="jkTlSePeu8T83e2XYOU7-21" value="" style="rhombus;aspect=fixed;verticalAlign=middle;" vertex="1" parent="1">
          <mxGeometry x="975" y="330" width="20" height="20" as="geometry" />
        </mxCell>
        <mxCell id="jkTlSePeu8T83e2XYOU7-28" style="edgeStyle=orthogonalEdgeStyle;rounded=0;orthogonalLoop=1;jettySize=auto;html=1;entryX=0;entryY=0.5;entryDx=0;entryDy=0;endArrow=open;endFill=0;" edge="1" parent="1" source="jkTlSePeu8T83e2XYOU7-26" target="dbOsJFISRweaIFSGTA1j-8">
          <mxGeometry relative="1" as="geometry" />
        </mxCell>
        <mxCell id="jkTlSePeu8T83e2XYOU7-26" value="поменять статус товара" style="html=1;align=center;verticalAlign=top;rounded=1;absoluteArcSize=1;arcSize=10;dashed=0;whiteSpace=wrap;" vertex="1" parent="1">
          <mxGeometry x="1040" y="380" width="100" height="40" as="geometry" />
        </mxCell>
        <mxCell id="1IMFi2n1XOwy3tBd0wlQ-1" value="" style="shape=sumEllipse;perimeter=ellipsePerimeter;html=1;backgroundOutline=1;" vertex="1" parent="1">
          <mxGeometry x="710" y="575" width="30" height="30" as="geometry" />
        </mxCell>
        <mxCell id="1IMFi2n1XOwy3tBd0wlQ-3" value="" style="shape=sumEllipse;perimeter=ellipsePerimeter;html=1;backgroundOutline=1;" vertex="1" parent="1">
          <mxGeometry x="1100" y="270" width="30" height="30" as="geometry" />
        </mxCell>
        <mxCell id="1IMFi2n1XOwy3tBd0wlQ-4" value="" style="ellipse;html=1;shape=endState;fillColor=strokeColor;" vertex="1" parent="1">
          <mxGeometry x="1360" y="513" width="30" height="30" as="geometry" />
        </mxCell>
      </root>
    </mxGraphModel>
  </diagram>
  <diagram id="Zzt9vboPIKiErR0zvlu0" name="3">
    <mxGraphModel grid="1" page="1" gridSize="10" guides="1" tooltips="1" connect="1" arrows="1" fold="1" pageScale="1" pageWidth="1920" pageHeight="1200" math="0" shadow="0">
      <root>
        <mxCell id="0" />
        <mxCell id="1" parent="0" />
        <mxCell id="vvRPox5FDZ8OxAy_OKSX-4" value="&lt;span style=&quot;font-size:14.0pt;line-height:&lt;br/&gt;107%;font-family:&amp;quot;Times New Roman&amp;quot;,&amp;quot;serif&amp;quot;;mso-fareast-font-family:Calibri;&lt;br/&gt;mso-fareast-theme-font:minor-latin;mso-ansi-language:EN-US;mso-fareast-language:&lt;br/&gt;EN-US;mso-bidi-language:AR-SA&quot; lang=&quot;EN-US&quot;&gt;User&lt;/span&gt;" style="swimlane;fontStyle=0;align=center;verticalAlign=top;childLayout=stackLayout;horizontal=1;startSize=55;horizontalStack=0;resizeParent=1;resizeParentMax=0;resizeLast=0;collapsible=0;marginBottom=0;html=1;whiteSpace=wrap;" vertex="1" parent="1">
          <mxGeometry x="60" y="520" width="140" height="203" as="geometry" />
        </mxCell>
        <mxCell id="Liqdhfa542ctxh-pBScr-7" value="attributes" style="text;html=1;strokeColor=none;fillColor=none;align=center;verticalAlign=middle;spacingLeft=4;spacingRight=4;overflow=hidden;rotatable=0;points=[[0,0.5],[1,0.5]];portConstraint=eastwest;whiteSpace=wrap;" vertex="1" parent="vvRPox5FDZ8OxAy_OKSX-4">
          <mxGeometry y="55" width="140" height="20" as="geometry" />
        </mxCell>
        <mxCell id="Liqdhfa542ctxh-pBScr-44" value="+id: int" style="text;html=1;strokeColor=none;fillColor=none;align=left;verticalAlign=middle;spacingLeft=4;spacingRight=4;overflow=hidden;rotatable=0;points=[[0,0.5],[1,0.5]];portConstraint=eastwest;whiteSpace=wrap;" vertex="1" parent="vvRPox5FDZ8OxAy_OKSX-4">
          <mxGeometry y="75" width="140" height="20" as="geometry" />
        </mxCell>
        <mxCell id="Liqdhfa542ctxh-pBScr-8" value="+name: str" style="text;html=1;strokeColor=none;fillColor=none;align=left;verticalAlign=middle;spacingLeft=4;spacingRight=4;overflow=hidden;rotatable=0;points=[[0,0.5],[1,0.5]];portConstraint=eastwest;whiteSpace=wrap;" vertex="1" parent="vvRPox5FDZ8OxAy_OKSX-4">
          <mxGeometry y="95" width="140" height="20" as="geometry" />
        </mxCell>
        <mxCell id="Liqdhfa542ctxh-pBScr-10" value="+password: str" style="text;html=1;strokeColor=none;fillColor=none;align=left;verticalAlign=middle;spacingLeft=4;spacingRight=4;overflow=hidden;rotatable=0;points=[[0,0.5],[1,0.5]];portConstraint=eastwest;whiteSpace=wrap;" vertex="1" parent="vvRPox5FDZ8OxAy_OKSX-4">
          <mxGeometry y="115" width="140" height="20" as="geometry" />
        </mxCell>
        <mxCell id="Liqdhfa542ctxh-pBScr-11" value="+is_admin: bool" style="text;html=1;strokeColor=none;fillColor=none;align=left;verticalAlign=middle;spacingLeft=4;spacingRight=4;overflow=hidden;rotatable=0;points=[[0,0.5],[1,0.5]];portConstraint=eastwest;whiteSpace=wrap;" vertex="1" parent="vvRPox5FDZ8OxAy_OKSX-4">
          <mxGeometry y="135" width="140" height="20" as="geometry" />
        </mxCell>
        <mxCell id="vvRPox5FDZ8OxAy_OKSX-9" value="" style="line;strokeWidth=1;fillColor=none;align=left;verticalAlign=middle;spacingTop=-1;spacingLeft=3;spacingRight=3;rotatable=0;labelPosition=right;points=[];portConstraint=eastwest;" vertex="1" parent="vvRPox5FDZ8OxAy_OKSX-4">
          <mxGeometry y="155" width="140" height="8" as="geometry" />
        </mxCell>
        <mxCell id="vvRPox5FDZ8OxAy_OKSX-10" value="operations" style="text;html=1;strokeColor=none;fillColor=none;align=center;verticalAlign=middle;spacingLeft=4;spacingRight=4;overflow=hidden;rotatable=0;points=[[0,0.5],[1,0.5]];portConstraint=eastwest;whiteSpace=wrap;" vertex="1" parent="vvRPox5FDZ8OxAy_OKSX-4">
          <mxGeometry y="163" width="140" height="20" as="geometry" />
        </mxCell>
        <mxCell id="vvRPox5FDZ8OxAy_OKSX-11" value="+orders(): Orders[]" style="text;html=1;strokeColor=none;fillColor=none;align=left;verticalAlign=middle;spacingLeft=4;spacingRight=4;overflow=hidden;rotatable=0;points=[[0,0.5],[1,0.5]];portConstraint=eastwest;whiteSpace=wrap;" vertex="1" parent="vvRPox5FDZ8OxAy_OKSX-4">
          <mxGeometry y="183" width="140" height="20" as="geometry" />
        </mxCell>
        <mxCell id="vvRPox5FDZ8OxAy_OKSX-12" value="&lt;span style=&quot;font-size:14.0pt;line-height:&lt;br/&gt;107%;font-family:&amp;quot;Times New Roman&amp;quot;,&amp;quot;serif&amp;quot;;mso-fareast-font-family:Calibri;&lt;br/&gt;mso-fareast-theme-font:minor-latin;mso-ansi-language:EN-US;mso-fareast-language:&lt;br/&gt;EN-US;mso-bidi-language:AR-SA&quot; lang=&quot;EN-US&quot;&gt;Product&lt;/span&gt;" style="swimlane;fontStyle=0;align=center;verticalAlign=top;childLayout=stackLayout;horizontal=1;startSize=55;horizontalStack=0;resizeParent=1;resizeParentMax=0;resizeLast=0;collapsible=0;marginBottom=0;html=1;whiteSpace=wrap;" vertex="1" parent="1">
          <mxGeometry x="1040" y="530" width="140" height="183" as="geometry" />
        </mxCell>
        <mxCell id="vvRPox5FDZ8OxAy_OKSX-13" value="attributes" style="text;html=1;strokeColor=none;fillColor=none;align=center;verticalAlign=middle;spacingLeft=4;spacingRight=4;overflow=hidden;rotatable=0;points=[[0,0.5],[1,0.5]];portConstraint=eastwest;whiteSpace=wrap;" vertex="1" parent="vvRPox5FDZ8OxAy_OKSX-12">
          <mxGeometry y="55" width="140" height="20" as="geometry" />
        </mxCell>
        <mxCell id="vvRPox5FDZ8OxAy_OKSX-14" value="+id: int" style="text;html=1;strokeColor=none;fillColor=none;align=left;verticalAlign=middle;spacingLeft=4;spacingRight=4;overflow=hidden;rotatable=0;points=[[0,0.5],[1,0.5]];portConstraint=eastwest;whiteSpace=wrap;" vertex="1" parent="vvRPox5FDZ8OxAy_OKSX-12">
          <mxGeometry y="75" width="140" height="20" as="geometry" />
        </mxCell>
        <mxCell id="Liqdhfa542ctxh-pBScr-43" value="+name: str" style="text;html=1;strokeColor=none;fillColor=none;align=left;verticalAlign=middle;spacingLeft=4;spacingRight=4;overflow=hidden;rotatable=0;points=[[0,0.5],[1,0.5]];portConstraint=eastwest;whiteSpace=wrap;" vertex="1" parent="vvRPox5FDZ8OxAy_OKSX-12">
          <mxGeometry y="95" width="140" height="20" as="geometry" />
        </mxCell>
        <mxCell id="Liqdhfa542ctxh-pBScr-45" value="+price: int" style="text;html=1;strokeColor=none;fillColor=none;align=left;verticalAlign=middle;spacingLeft=4;spacingRight=4;overflow=hidden;rotatable=0;points=[[0,0.5],[1,0.5]];portConstraint=eastwest;whiteSpace=wrap;" vertex="1" parent="vvRPox5FDZ8OxAy_OKSX-12">
          <mxGeometry y="115" width="140" height="20" as="geometry" />
        </mxCell>
        <mxCell id="vvRPox5FDZ8OxAy_OKSX-17" value="" style="line;strokeWidth=1;fillColor=none;align=left;verticalAlign=middle;spacingTop=-1;spacingLeft=3;spacingRight=3;rotatable=0;labelPosition=right;points=[];portConstraint=eastwest;" vertex="1" parent="vvRPox5FDZ8OxAy_OKSX-12">
          <mxGeometry y="135" width="140" height="8" as="geometry" />
        </mxCell>
        <mxCell id="vvRPox5FDZ8OxAy_OKSX-18" value="operations" style="text;html=1;strokeColor=none;fillColor=none;align=center;verticalAlign=middle;spacingLeft=4;spacingRight=4;overflow=hidden;rotatable=0;points=[[0,0.5],[1,0.5]];portConstraint=eastwest;whiteSpace=wrap;" vertex="1" parent="vvRPox5FDZ8OxAy_OKSX-12">
          <mxGeometry y="143" width="140" height="20" as="geometry" />
        </mxCell>
        <mxCell id="vvRPox5FDZ8OxAy_OKSX-19" value="+orders(): Orders[]" style="text;html=1;strokeColor=none;fillColor=none;align=left;verticalAlign=middle;spacingLeft=4;spacingRight=4;overflow=hidden;rotatable=0;points=[[0,0.5],[1,0.5]];portConstraint=eastwest;whiteSpace=wrap;" vertex="1" parent="vvRPox5FDZ8OxAy_OKSX-12">
          <mxGeometry y="163" width="140" height="20" as="geometry" />
        </mxCell>
        <mxCell id="vvRPox5FDZ8OxAy_OKSX-20" value="&lt;span style=&quot;font-size:14.0pt;line-height:&lt;br/&gt;107%;font-family:&amp;quot;Times New Roman&amp;quot;,&amp;quot;serif&amp;quot;;mso-fareast-font-family:Calibri;&lt;br/&gt;mso-fareast-theme-font:minor-latin;mso-ansi-language:EN-US;mso-fareast-language:&lt;br/&gt;EN-US;mso-bidi-language:AR-SA&quot; lang=&quot;EN-US&quot;&gt;Order&lt;/span&gt;" style="swimlane;fontStyle=0;align=center;verticalAlign=top;childLayout=stackLayout;horizontal=1;startSize=55;horizontalStack=0;resizeParent=1;resizeParentMax=0;resizeLast=0;collapsible=0;marginBottom=0;html=1;whiteSpace=wrap;" vertex="1" parent="1">
          <mxGeometry x="380" y="540" width="140" height="163" as="geometry" />
        </mxCell>
        <mxCell id="vvRPox5FDZ8OxAy_OKSX-21" value="attributes" style="text;html=1;strokeColor=none;fillColor=none;align=center;verticalAlign=middle;spacingLeft=4;spacingRight=4;overflow=hidden;rotatable=0;points=[[0,0.5],[1,0.5]];portConstraint=eastwest;whiteSpace=wrap;" vertex="1" parent="vvRPox5FDZ8OxAy_OKSX-20">
          <mxGeometry y="55" width="140" height="20" as="geometry" />
        </mxCell>
        <mxCell id="vvRPox5FDZ8OxAy_OKSX-22" value="+id: int" style="text;html=1;strokeColor=none;fillColor=none;align=left;verticalAlign=middle;spacingLeft=4;spacingRight=4;overflow=hidden;rotatable=0;points=[[0,0.5],[1,0.5]];portConstraint=eastwest;whiteSpace=wrap;" vertex="1" parent="vvRPox5FDZ8OxAy_OKSX-20">
          <mxGeometry y="75" width="140" height="20" as="geometry" />
        </mxCell>
        <mxCell id="Liqdhfa542ctxh-pBScr-13" value="+user_id: int" style="text;html=1;strokeColor=none;fillColor=none;align=left;verticalAlign=middle;spacingLeft=4;spacingRight=4;overflow=hidden;rotatable=0;points=[[0,0.5],[1,0.5]];portConstraint=eastwest;whiteSpace=wrap;" vertex="1" parent="vvRPox5FDZ8OxAy_OKSX-20">
          <mxGeometry y="95" width="140" height="20" as="geometry" />
        </mxCell>
        <mxCell id="vvRPox5FDZ8OxAy_OKSX-25" value="" style="line;strokeWidth=1;fillColor=none;align=left;verticalAlign=middle;spacingTop=-1;spacingLeft=3;spacingRight=3;rotatable=0;labelPosition=right;points=[];portConstraint=eastwest;" vertex="1" parent="vvRPox5FDZ8OxAy_OKSX-20">
          <mxGeometry y="115" width="140" height="8" as="geometry" />
        </mxCell>
        <mxCell id="vvRPox5FDZ8OxAy_OKSX-26" value="operations" style="text;html=1;strokeColor=none;fillColor=none;align=center;verticalAlign=middle;spacingLeft=4;spacingRight=4;overflow=hidden;rotatable=0;points=[[0,0.5],[1,0.5]];portConstraint=eastwest;whiteSpace=wrap;" vertex="1" parent="vvRPox5FDZ8OxAy_OKSX-20">
          <mxGeometry y="123" width="140" height="20" as="geometry" />
        </mxCell>
        <mxCell id="vvRPox5FDZ8OxAy_OKSX-27" value="+products(): Products[]" style="text;html=1;strokeColor=none;fillColor=none;align=left;verticalAlign=middle;spacingLeft=4;spacingRight=4;overflow=hidden;rotatable=0;points=[[0,0.5],[1,0.5]];portConstraint=eastwest;whiteSpace=wrap;" vertex="1" parent="vvRPox5FDZ8OxAy_OKSX-20">
          <mxGeometry y="143" width="140" height="20" as="geometry" />
        </mxCell>
        <mxCell id="Liqdhfa542ctxh-pBScr-17" value="{redefines}" style="endArrow=none;html=1;rounded=0;align=center;verticalAlign=top;endFill=0;labelBackgroundColor=none;" edge="1" parent="1" source="vvRPox5FDZ8OxAy_OKSX-4" target="vvRPox5FDZ8OxAy_OKSX-20">
          <mxGeometry relative="1" as="geometry">
            <mxPoint x="200" y="560" as="sourcePoint" />
            <mxPoint x="400" y="560" as="targetPoint" />
          </mxGeometry>
        </mxCell>
        <mxCell id="Liqdhfa542ctxh-pBScr-18" value="end1" style="resizable=0;html=1;align=left;verticalAlign=bottom;labelBackgroundColor=none;" connectable="0" vertex="1" parent="Liqdhfa542ctxh-pBScr-17">
          <mxGeometry x="-1" relative="1" as="geometry" />
        </mxCell>
        <mxCell id="Liqdhfa542ctxh-pBScr-19" value="0..1" style="resizable=0;html=1;align=left;verticalAlign=top;labelBackgroundColor=none;" connectable="0" vertex="1" parent="Liqdhfa542ctxh-pBScr-17">
          <mxGeometry x="-1" relative="1" as="geometry" />
        </mxCell>
        <mxCell id="Liqdhfa542ctxh-pBScr-20" value="Association1" style="resizable=0;html=1;align=right;verticalAlign=bottom;labelBackgroundColor=none;" connectable="0" vertex="1" parent="Liqdhfa542ctxh-pBScr-17">
          <mxGeometry x="1" relative="1" as="geometry" />
        </mxCell>
        <mxCell id="Liqdhfa542ctxh-pBScr-21" value="{modifier1}" style="resizable=0;html=1;align=right;verticalAlign=top;labelBackgroundColor=none;" connectable="0" vertex="1" parent="Liqdhfa542ctxh-pBScr-17">
          <mxGeometry x="1" relative="1" as="geometry" />
        </mxCell>
        <mxCell id="Liqdhfa542ctxh-pBScr-22" value="{redefines}" style="endArrow=none;html=1;rounded=0;align=center;verticalAlign=top;endFill=0;labelBackgroundColor=none;" edge="1" parent="1" source="Liqdhfa542ctxh-pBScr-27" target="vvRPox5FDZ8OxAy_OKSX-12">
          <mxGeometry relative="1" as="geometry">
            <mxPoint x="620" y="420" as="sourcePoint" />
            <mxPoint x="820" y="420" as="targetPoint" />
          </mxGeometry>
        </mxCell>
        <mxCell id="Liqdhfa542ctxh-pBScr-23" value="end1" style="resizable=0;html=1;align=left;verticalAlign=bottom;labelBackgroundColor=none;" connectable="0" vertex="1" parent="Liqdhfa542ctxh-pBScr-22">
          <mxGeometry x="-1" relative="1" as="geometry" />
        </mxCell>
        <mxCell id="Liqdhfa542ctxh-pBScr-24" value="0..1" style="resizable=0;html=1;align=left;verticalAlign=top;labelBackgroundColor=none;" connectable="0" vertex="1" parent="Liqdhfa542ctxh-pBScr-22">
          <mxGeometry x="-1" relative="1" as="geometry" />
        </mxCell>
        <mxCell id="Liqdhfa542ctxh-pBScr-25" value="Association1" style="resizable=0;html=1;align=right;verticalAlign=bottom;labelBackgroundColor=none;" connectable="0" vertex="1" parent="Liqdhfa542ctxh-pBScr-22">
          <mxGeometry x="1" relative="1" as="geometry" />
        </mxCell>
        <mxCell id="Liqdhfa542ctxh-pBScr-26" value="{modifier1}" style="resizable=0;html=1;align=right;verticalAlign=top;labelBackgroundColor=none;" connectable="0" vertex="1" parent="Liqdhfa542ctxh-pBScr-22">
          <mxGeometry x="1" relative="1" as="geometry" />
        </mxCell>
        <mxCell id="Liqdhfa542ctxh-pBScr-27" value="&lt;span style=&quot;font-size:14.0pt;line-height:&lt;br/&gt;107%;font-family:&amp;quot;Times New Roman&amp;quot;,&amp;quot;serif&amp;quot;;mso-fareast-font-family:Calibri;&lt;br/&gt;mso-fareast-theme-font:minor-latin;mso-ansi-language:EN-US;mso-fareast-language:&lt;br/&gt;EN-US;mso-bidi-language:AR-SA&quot; lang=&quot;EN-US&quot;&gt;OrderProduct&lt;/span&gt;" style="swimlane;fontStyle=0;align=center;verticalAlign=top;childLayout=stackLayout;horizontal=1;startSize=55;horizontalStack=0;resizeParent=1;resizeParentMax=0;resizeLast=0;collapsible=0;marginBottom=0;html=1;whiteSpace=wrap;" vertex="1" parent="1">
          <mxGeometry x="720" y="510" width="140" height="223" as="geometry" />
        </mxCell>
        <mxCell id="Liqdhfa542ctxh-pBScr-28" value="attributes" style="text;html=1;strokeColor=none;fillColor=none;align=center;verticalAlign=middle;spacingLeft=4;spacingRight=4;overflow=hidden;rotatable=0;points=[[0,0.5],[1,0.5]];portConstraint=eastwest;whiteSpace=wrap;" vertex="1" parent="Liqdhfa542ctxh-pBScr-27">
          <mxGeometry y="55" width="140" height="20" as="geometry" />
        </mxCell>
        <mxCell id="Liqdhfa542ctxh-pBScr-29" value="+id: int" style="text;html=1;strokeColor=none;fillColor=none;align=left;verticalAlign=middle;spacingLeft=4;spacingRight=4;overflow=hidden;rotatable=0;points=[[0,0.5],[1,0.5]];portConstraint=eastwest;whiteSpace=wrap;" vertex="1" parent="Liqdhfa542ctxh-pBScr-27">
          <mxGeometry y="75" width="140" height="20" as="geometry" />
        </mxCell>
        <mxCell id="Liqdhfa542ctxh-pBScr-30" value="+order_id: int" style="text;html=1;strokeColor=none;fillColor=none;align=left;verticalAlign=middle;spacingLeft=4;spacingRight=4;overflow=hidden;rotatable=0;points=[[0,0.5],[1,0.5]];portConstraint=eastwest;whiteSpace=wrap;" vertex="1" parent="Liqdhfa542ctxh-pBScr-27">
          <mxGeometry y="95" width="140" height="20" as="geometry" />
        </mxCell>
        <mxCell id="Liqdhfa542ctxh-pBScr-31" value="+product_id: int" style="text;html=1;strokeColor=none;fillColor=none;align=left;verticalAlign=middle;spacingLeft=4;spacingRight=4;overflow=hidden;rotatable=0;points=[[0,0.5],[1,0.5]];portConstraint=eastwest;whiteSpace=wrap;" vertex="1" parent="Liqdhfa542ctxh-pBScr-27">
          <mxGeometry y="115" width="140" height="20" as="geometry" />
        </mxCell>
        <mxCell id="Liqdhfa542ctxh-pBScr-32" value="+count: int" style="text;html=1;strokeColor=none;fillColor=none;align=left;verticalAlign=middle;spacingLeft=4;spacingRight=4;overflow=hidden;rotatable=0;points=[[0,0.5],[1,0.5]];portConstraint=eastwest;whiteSpace=wrap;" vertex="1" parent="Liqdhfa542ctxh-pBScr-27">
          <mxGeometry y="135" width="140" height="20" as="geometry" />
        </mxCell>
        <mxCell id="Liqdhfa542ctxh-pBScr-34" value="" style="line;strokeWidth=1;fillColor=none;align=left;verticalAlign=middle;spacingTop=-1;spacingLeft=3;spacingRight=3;rotatable=0;labelPosition=right;points=[];portConstraint=eastwest;" vertex="1" parent="Liqdhfa542ctxh-pBScr-27">
          <mxGeometry y="155" width="140" height="8" as="geometry" />
        </mxCell>
        <mxCell id="Liqdhfa542ctxh-pBScr-35" value="operations" style="text;html=1;strokeColor=none;fillColor=none;align=center;verticalAlign=middle;spacingLeft=4;spacingRight=4;overflow=hidden;rotatable=0;points=[[0,0.5],[1,0.5]];portConstraint=eastwest;whiteSpace=wrap;" vertex="1" parent="Liqdhfa542ctxh-pBScr-27">
          <mxGeometry y="163" width="140" height="20" as="geometry" />
        </mxCell>
        <mxCell id="Liqdhfa542ctxh-pBScr-36" value="+order(): Order" style="text;html=1;strokeColor=none;fillColor=none;align=left;verticalAlign=middle;spacingLeft=4;spacingRight=4;overflow=hidden;rotatable=0;points=[[0,0.5],[1,0.5]];portConstraint=eastwest;whiteSpace=wrap;" vertex="1" parent="Liqdhfa542ctxh-pBScr-27">
          <mxGeometry y="183" width="140" height="20" as="geometry" />
        </mxCell>
        <mxCell id="Liqdhfa542ctxh-pBScr-37" value="+product(): Product" style="text;html=1;strokeColor=none;fillColor=none;align=left;verticalAlign=middle;spacingLeft=4;spacingRight=4;overflow=hidden;rotatable=0;points=[[0,0.5],[1,0.5]];portConstraint=eastwest;whiteSpace=wrap;" vertex="1" parent="Liqdhfa542ctxh-pBScr-27">
          <mxGeometry y="203" width="140" height="20" as="geometry" />
        </mxCell>
        <mxCell id="Liqdhfa542ctxh-pBScr-38" value="{redefines}" style="endArrow=none;html=1;rounded=0;align=center;verticalAlign=top;endFill=0;labelBackgroundColor=none;" edge="1" parent="1" source="vvRPox5FDZ8OxAy_OKSX-20" target="Liqdhfa542ctxh-pBScr-27">
          <mxGeometry relative="1" as="geometry">
            <mxPoint x="610" y="490" as="sourcePoint" />
            <mxPoint x="810" y="490" as="targetPoint" />
          </mxGeometry>
        </mxCell>
        <mxCell id="Liqdhfa542ctxh-pBScr-39" value="end1" style="resizable=0;html=1;align=left;verticalAlign=bottom;labelBackgroundColor=none;" connectable="0" vertex="1" parent="Liqdhfa542ctxh-pBScr-38">
          <mxGeometry x="-1" relative="1" as="geometry" />
        </mxCell>
        <mxCell id="Liqdhfa542ctxh-pBScr-40" value="0..1" style="resizable=0;html=1;align=left;verticalAlign=top;labelBackgroundColor=none;" connectable="0" vertex="1" parent="Liqdhfa542ctxh-pBScr-38">
          <mxGeometry x="-1" relative="1" as="geometry" />
        </mxCell>
        <mxCell id="Liqdhfa542ctxh-pBScr-41" value="Association1" style="resizable=0;html=1;align=right;verticalAlign=bottom;labelBackgroundColor=none;" connectable="0" vertex="1" parent="Liqdhfa542ctxh-pBScr-38">
          <mxGeometry x="1" relative="1" as="geometry" />
        </mxCell>
        <mxCell id="Liqdhfa542ctxh-pBScr-42" value="{modifier1}" style="resizable=0;html=1;align=right;verticalAlign=top;labelBackgroundColor=none;" connectable="0" vertex="1" parent="Liqdhfa542ctxh-pBScr-38">
          <mxGeometry x="1" relative="1" as="geometry" />
        </mxCell>
      </root>
    </mxGraphModel>
  </diagram>
  <diagram id="-Kf5-u_RZ4dq66Kp2vIu" name="4">
    <mxGraphModel grid="1" page="1" gridSize="10" guides="1" tooltips="1" connect="1" arrows="1" fold="1" pageScale="1" pageWidth="1920" pageHeight="1200" math="0" shadow="0">
      <root>
        <mxCell id="0" />
        <mxCell id="1" parent="0" />
        <mxCell id="H4OsGfkR3s9A8N3g6v4s-1" value="sd Авторизация пользователя" style="shape=umlFrame;whiteSpace=wrap;html=1;pointerEvents=0;recursiveResize=0;container=1;collapsible=0;width=160;" vertex="1" parent="1">
          <mxGeometry x="190" y="80" width="1000" height="1040" as="geometry" />
        </mxCell>
        <mxCell id="H4OsGfkR3s9A8N3g6v4s-2" value="LoginForm: View" style="shape=umlLifeline;perimeter=lifelinePerimeter;whiteSpace=wrap;html=1;container=1;dropTarget=0;collapsible=0;recursiveResize=0;outlineConnect=0;portConstraint=eastwest;newEdgeStyle={&quot;edgeStyle&quot;:&quot;elbowEdgeStyle&quot;,&quot;elbow&quot;:&quot;vertical&quot;,&quot;curved&quot;:0,&quot;rounded&quot;:0};" vertex="1" parent="H4OsGfkR3s9A8N3g6v4s-1">
          <mxGeometry x="40" y="80" width="100" height="560" as="geometry" />
        </mxCell>
        <mxCell id="H4OsGfkR3s9A8N3g6v4s-3" value=":Route" style="shape=umlLifeline;perimeter=lifelinePerimeter;whiteSpace=wrap;html=1;container=1;dropTarget=0;collapsible=0;recursiveResize=0;outlineConnect=0;portConstraint=eastwest;newEdgeStyle={&quot;edgeStyle&quot;:&quot;elbowEdgeStyle&quot;,&quot;elbow&quot;:&quot;vertical&quot;,&quot;curved&quot;:0,&quot;rounded&quot;:0};" vertex="1" parent="H4OsGfkR3s9A8N3g6v4s-1">
          <mxGeometry x="160" y="80" width="100" height="960" as="geometry" />
        </mxCell>
        <mxCell id="H4OsGfkR3s9A8N3g6v4s-4" value="" style="html=1;points=[];perimeter=orthogonalPerimeter;" vertex="1" parent="H4OsGfkR3s9A8N3g6v4s-1">
          <mxGeometry x="84" y="160" width="12" height="40" as="geometry" />
        </mxCell>
        <mxCell id="H4OsGfkR3s9A8N3g6v4s-5" style="edgeStyle=orthogonalEdgeStyle;rounded=0;orthogonalLoop=1;jettySize=auto;html=1;endArrow=block;endFill=1;entryX=-0.012;entryY=0.083;entryDx=0;entryDy=0;entryPerimeter=0;" edge="1" parent="H4OsGfkR3s9A8N3g6v4s-1" source="H4OsGfkR3s9A8N3g6v4s-7" target="H4OsGfkR3s9A8N3g6v4s-14">
          <mxGeometry relative="1" as="geometry" />
        </mxCell>
        <mxCell id="H4OsGfkR3s9A8N3g6v4s-6" value="login($request)" style="edgeLabel;html=1;align=center;verticalAlign=middle;resizable=0;points=[];" connectable="0" vertex="1" parent="H4OsGfkR3s9A8N3g6v4s-5">
          <mxGeometry x="0.0308" y="-2" relative="1" as="geometry">
            <mxPoint x="-3" y="8" as="offset" />
          </mxGeometry>
        </mxCell>
        <mxCell id="H4OsGfkR3s9A8N3g6v4s-7" value="" style="html=1;points=[];perimeter=orthogonalPerimeter;" vertex="1" parent="H4OsGfkR3s9A8N3g6v4s-1">
          <mxGeometry x="203.75" y="160" width="12.5" height="40" as="geometry" />
        </mxCell>
        <mxCell id="H4OsGfkR3s9A8N3g6v4s-8" value=":RegisterController" style="shape=umlLifeline;perimeter=lifelinePerimeter;whiteSpace=wrap;html=1;container=1;dropTarget=0;collapsible=0;recursiveResize=0;outlineConnect=0;portConstraint=eastwest;newEdgeStyle={&quot;edgeStyle&quot;:&quot;elbowEdgeStyle&quot;,&quot;elbow&quot;:&quot;vertical&quot;,&quot;curved&quot;:0,&quot;rounded&quot;:0};" vertex="1" parent="H4OsGfkR3s9A8N3g6v4s-1">
          <mxGeometry x="380" y="80" width="100" height="960" as="geometry" />
        </mxCell>
        <mxCell id="H4OsGfkR3s9A8N3g6v4s-9" value=":Request" style="shape=umlLifeline;perimeter=lifelinePerimeter;whiteSpace=wrap;html=1;container=1;dropTarget=0;collapsible=0;recursiveResize=0;outlineConnect=0;portConstraint=eastwest;newEdgeStyle={&quot;edgeStyle&quot;:&quot;elbowEdgeStyle&quot;,&quot;elbow&quot;:&quot;vertical&quot;,&quot;curved&quot;:0,&quot;rounded&quot;:0};" vertex="1" parent="H4OsGfkR3s9A8N3g6v4s-1">
          <mxGeometry x="500" y="80" width="100" height="960" as="geometry" />
        </mxCell>
        <mxCell id="H4OsGfkR3s9A8N3g6v4s-10" style="edgeStyle=orthogonalEdgeStyle;rounded=0;orthogonalLoop=1;jettySize=auto;html=1;endArrow=block;endFill=1;" edge="1" parent="H4OsGfkR3s9A8N3g6v4s-1" source="H4OsGfkR3s9A8N3g6v4s-4">
          <mxGeometry relative="1" as="geometry">
            <mxPoint x="204" y="180" as="targetPoint" />
          </mxGeometry>
        </mxCell>
        <mxCell id="H4OsGfkR3s9A8N3g6v4s-11" value="post($request)" style="edgeLabel;html=1;align=center;verticalAlign=middle;resizable=0;points=[];" connectable="0" vertex="1" parent="H4OsGfkR3s9A8N3g6v4s-10">
          <mxGeometry x="-0.6673" y="2" relative="1" as="geometry">
            <mxPoint x="26" y="12" as="offset" />
          </mxGeometry>
        </mxCell>
        <mxCell id="H4OsGfkR3s9A8N3g6v4s-12" value="" style="edgeStyle=orthogonalEdgeStyle;rounded=0;orthogonalLoop=1;jettySize=auto;html=1;endArrow=block;endFill=1;exitX=1.076;exitY=0.083;exitDx=0;exitDy=0;exitPerimeter=0;" edge="1" parent="H4OsGfkR3s9A8N3g6v4s-1" source="H4OsGfkR3s9A8N3g6v4s-14">
          <mxGeometry relative="1" as="geometry">
            <mxPoint x="540" y="180" as="targetPoint" />
          </mxGeometry>
        </mxCell>
        <mxCell id="H4OsGfkR3s9A8N3g6v4s-13" value="validate()" style="edgeLabel;html=1;align=center;verticalAlign=middle;resizable=0;points=[];" connectable="0" vertex="1" parent="H4OsGfkR3s9A8N3g6v4s-12">
          <mxGeometry x="0.0223" y="-2" relative="1" as="geometry">
            <mxPoint y="8" as="offset" />
          </mxGeometry>
        </mxCell>
        <mxCell id="H4OsGfkR3s9A8N3g6v4s-14" value="" style="html=1;points=[];perimeter=orthogonalPerimeter;" vertex="1" parent="H4OsGfkR3s9A8N3g6v4s-1">
          <mxGeometry x="423.75" y="160" width="12.5" height="240" as="geometry" />
        </mxCell>
        <mxCell id="H4OsGfkR3s9A8N3g6v4s-15" value="alt" style="shape=umlFrame;whiteSpace=wrap;html=1;pointerEvents=0;recursiveResize=0;container=1;collapsible=0;width=40;height=40;" vertex="1" parent="H4OsGfkR3s9A8N3g6v4s-1">
          <mxGeometry x="40" y="240" width="950" height="760" as="geometry" />
        </mxCell>
        <mxCell id="H4OsGfkR3s9A8N3g6v4s-16" value="[не валидные данные]" style="text;html=1;align=center;verticalAlign=middle;resizable=0;points=[];autosize=1;strokeColor=none;fillColor=none;" vertex="1" parent="H4OsGfkR3s9A8N3g6v4s-15">
          <mxGeometry x="6" y="30" width="150" height="30" as="geometry" />
        </mxCell>
        <mxCell id="H4OsGfkR3s9A8N3g6v4s-17" value="$errors[]" style="text;html=1;align=center;verticalAlign=middle;resizable=0;points=[];autosize=1;strokeColor=none;fillColor=none;" vertex="1" parent="H4OsGfkR3s9A8N3g6v4s-15">
          <mxGeometry x="400" y="30" width="70" height="30" as="geometry" />
        </mxCell>
        <mxCell id="H4OsGfkR3s9A8N3g6v4s-18" value="attempt()" style="text;html=1;align=center;verticalAlign=middle;resizable=0;points=[];autosize=1;strokeColor=none;fillColor=none;" vertex="1" parent="H4OsGfkR3s9A8N3g6v4s-15">
          <mxGeometry x="580" y="110" width="70" height="30" as="geometry" />
        </mxCell>
        <mxCell id="H4OsGfkR3s9A8N3g6v4s-19" value="[валидные данные]" style="text;html=1;align=center;verticalAlign=middle;resizable=0;points=[];autosize=1;strokeColor=none;fillColor=none;" vertex="1" parent="H4OsGfkR3s9A8N3g6v4s-15">
          <mxGeometry x="16" y="130" width="130" height="30" as="geometry" />
        </mxCell>
        <mxCell id="H4OsGfkR3s9A8N3g6v4s-20" value="" style="endArrow=none;startArrow=none;endFill=0;startFill=0;endSize=8;html=1;verticalAlign=bottom;dashed=1;labelBackgroundColor=none;rounded=0;" edge="1" parent="H4OsGfkR3s9A8N3g6v4s-1">
          <mxGeometry width="160" relative="1" as="geometry">
            <mxPoint x="39" y="358" as="sourcePoint" />
            <mxPoint x="990" y="361" as="targetPoint" />
          </mxGeometry>
        </mxCell>
        <mxCell id="H4OsGfkR3s9A8N3g6v4s-21" value="" style="html=1;verticalAlign=bottom;labelBackgroundColor=none;endArrow=block;endFill=1;rounded=0;" edge="1" parent="H4OsGfkR3s9A8N3g6v4s-1" target="H4OsGfkR3s9A8N3g6v4s-24">
          <mxGeometry width="160" relative="1" as="geometry">
            <mxPoint x="556.25" y="380" as="sourcePoint" />
            <mxPoint x="770" y="380" as="targetPoint" />
          </mxGeometry>
        </mxCell>
        <mxCell id="H4OsGfkR3s9A8N3g6v4s-22" value=":Auth" style="shape=umlLifeline;perimeter=lifelinePerimeter;whiteSpace=wrap;html=1;container=1;dropTarget=0;collapsible=0;recursiveResize=0;outlineConnect=0;portConstraint=eastwest;newEdgeStyle={&quot;edgeStyle&quot;:&quot;elbowEdgeStyle&quot;,&quot;elbow&quot;:&quot;vertical&quot;,&quot;curved&quot;:0,&quot;rounded&quot;:0};" vertex="1" parent="H4OsGfkR3s9A8N3g6v4s-1">
          <mxGeometry x="730" y="80" width="100" height="560" as="geometry" />
        </mxCell>
        <mxCell id="H4OsGfkR3s9A8N3g6v4s-23" value=":AdminMiddleware" style="shape=umlLifeline;perimeter=lifelinePerimeter;whiteSpace=wrap;html=1;container=1;dropTarget=0;collapsible=0;recursiveResize=0;outlineConnect=0;portConstraint=eastwest;newEdgeStyle={&quot;edgeStyle&quot;:&quot;elbowEdgeStyle&quot;,&quot;elbow&quot;:&quot;vertical&quot;,&quot;curved&quot;:0,&quot;rounded&quot;:0};" vertex="1" parent="H4OsGfkR3s9A8N3g6v4s-1">
          <mxGeometry x="850" y="80" width="100" height="960" as="geometry" />
        </mxCell>
        <mxCell id="H4OsGfkR3s9A8N3g6v4s-24" value="" style="html=1;points=[];perimeter=orthogonalPerimeter;" vertex="1" parent="H4OsGfkR3s9A8N3g6v4s-1">
          <mxGeometry x="773.75" y="360" width="12.5" height="160" as="geometry" />
        </mxCell>
        <mxCell id="H4OsGfkR3s9A8N3g6v4s-25" value="" style="html=1;points=[];perimeter=orthogonalPerimeter;" vertex="1" parent="H4OsGfkR3s9A8N3g6v4s-1">
          <mxGeometry x="543.75" y="160" width="12.5" height="320" as="geometry" />
        </mxCell>
        <mxCell id="H4OsGfkR3s9A8N3g6v4s-26" value="" style="endArrow=none;startArrow=open;endFill=0;startFill=0;endSize=8;html=1;verticalAlign=bottom;dashed=1;labelBackgroundColor=none;rounded=0;entryX=0.006;entryY=0.585;entryDx=0;entryDy=0;entryPerimeter=0;" edge="1" parent="H4OsGfkR3s9A8N3g6v4s-1" source="H4OsGfkR3s9A8N3g6v4s-2" target="H4OsGfkR3s9A8N3g6v4s-25">
          <mxGeometry width="160" relative="1" as="geometry">
            <mxPoint x="336" y="300" as="sourcePoint" />
            <mxPoint x="496" y="300" as="targetPoint" />
          </mxGeometry>
        </mxCell>
        <mxCell id="H4OsGfkR3s9A8N3g6v4s-27" value="Opt" style="shape=umlFrame;whiteSpace=wrap;html=1;pointerEvents=0;recursiveResize=0;container=1;collapsible=0;width=60;height=40;" vertex="1" parent="H4OsGfkR3s9A8N3g6v4s-1">
          <mxGeometry x="480" y="400" width="480" height="640" as="geometry" />
        </mxCell>
        <mxCell id="H4OsGfkR3s9A8N3g6v4s-28" value="user:Auth" style="shape=umlLifeline;perimeter=lifelinePerimeter;whiteSpace=wrap;html=1;container=1;dropTarget=0;collapsible=0;recursiveResize=0;outlineConnect=0;portConstraint=eastwest;newEdgeStyle={&quot;edgeStyle&quot;:&quot;elbowEdgeStyle&quot;,&quot;elbow&quot;:&quot;vertical&quot;,&quot;curved&quot;:0,&quot;rounded&quot;:0};" vertex="1" parent="H4OsGfkR3s9A8N3g6v4s-27">
          <mxGeometry x="130" y="80" width="100" height="560" as="geometry" />
        </mxCell>
        <mxCell id="H4OsGfkR3s9A8N3g6v4s-29" value="" style="html=1;verticalAlign=bottom;labelBackgroundColor=none;endArrow=none;endFill=0;rounded=0;startArrow=block;startFill=1;entryX=0.5;entryY=0.923;entryDx=0;entryDy=0;entryPerimeter=0;" edge="1" parent="H4OsGfkR3s9A8N3g6v4s-27">
          <mxGeometry width="160" relative="1" as="geometry">
            <mxPoint x="230" y="105" as="sourcePoint" />
            <mxPoint x="293.75" y="105.00000000000006" as="targetPoint" />
          </mxGeometry>
        </mxCell>
        <mxCell id="H4OsGfkR3s9A8N3g6v4s-30" value="session-&amp;gt;&lt;div&gt;regenerate()&lt;/div&gt;" style="edgeLabel;html=1;align=center;verticalAlign=middle;resizable=0;points=[];" connectable="0" vertex="1" parent="H4OsGfkR3s9A8N3g6v4s-29">
          <mxGeometry x="-0.1201" y="-2" relative="1" as="geometry">
            <mxPoint x="3" y="-27" as="offset" />
          </mxGeometry>
        </mxCell>
        <mxCell id="H4OsGfkR3s9A8N3g6v4s-31" value="" style="html=1;points=[];perimeter=orthogonalPerimeter;" vertex="1" parent="H4OsGfkR3s9A8N3g6v4s-27">
          <mxGeometry x="173.75" y="160" width="12.5" height="210" as="geometry" />
        </mxCell>
        <mxCell id="H4OsGfkR3s9A8N3g6v4s-32" value="alt" style="shape=umlFrame;whiteSpace=wrap;html=1;pointerEvents=0;recursiveResize=0;container=1;collapsible=0;width=160;" vertex="1" parent="H4OsGfkR3s9A8N3g6v4s-27">
          <mxGeometry x="-400" y="240" width="840" height="180" as="geometry" />
        </mxCell>
        <mxCell id="H4OsGfkR3s9A8N3g6v4s-33" value="" style="endArrow=none;startArrow=none;endFill=0;startFill=0;endSize=8;html=1;verticalAlign=bottom;dashed=1;labelBackgroundColor=none;rounded=0;entryX=0.996;entryY=0.498;entryDx=0;entryDy=0;entryPerimeter=0;" edge="1" parent="H4OsGfkR3s9A8N3g6v4s-32" target="H4OsGfkR3s9A8N3g6v4s-32">
          <mxGeometry width="160" relative="1" as="geometry">
            <mxPoint y="90" as="sourcePoint" />
            <mxPoint x="160" y="90" as="targetPoint" />
          </mxGeometry>
        </mxCell>
        <mxCell id="H4OsGfkR3s9A8N3g6v4s-34" value="[true]" style="text;html=1;align=center;verticalAlign=middle;resizable=0;points=[];autosize=1;strokeColor=none;fillColor=none;" vertex="1" parent="H4OsGfkR3s9A8N3g6v4s-32">
          <mxGeometry x="40" y="48" width="50" height="30" as="geometry" />
        </mxCell>
        <mxCell id="H4OsGfkR3s9A8N3g6v4s-35" value="[false]" style="text;html=1;align=center;verticalAlign=middle;resizable=0;points=[];autosize=1;strokeColor=none;fillColor=none;" vertex="1" parent="H4OsGfkR3s9A8N3g6v4s-32">
          <mxGeometry x="40" y="120" width="60" height="30" as="geometry" />
        </mxCell>
        <mxCell id="H4OsGfkR3s9A8N3g6v4s-36" value="" style="endArrow=none;startArrow=open;endFill=0;startFill=0;endSize=8;html=1;verticalAlign=bottom;dashed=1;labelBackgroundColor=none;rounded=0;entryX=0.006;entryY=0.585;entryDx=0;entryDy=0;entryPerimeter=0;exitX=0.9;exitY=0.092;exitDx=0;exitDy=0;exitPerimeter=0;" edge="1" parent="H4OsGfkR3s9A8N3g6v4s-32" source="H4OsGfkR3s9A8N3g6v4s-43">
          <mxGeometry width="160" relative="1" as="geometry">
            <mxPoint x="350" y="48" as="sourcePoint" />
            <mxPoint x="805" y="48" as="targetPoint" />
          </mxGeometry>
        </mxCell>
        <mxCell id="H4OsGfkR3s9A8N3g6v4s-37" value="redirect(&quot;/&quot;)" style="edgeLabel;html=1;align=center;verticalAlign=middle;resizable=0;points=[];" connectable="0" vertex="1" parent="H4OsGfkR3s9A8N3g6v4s-36">
          <mxGeometry x="0.7156" y="1" relative="1" as="geometry">
            <mxPoint x="-3" y="-12" as="offset" />
          </mxGeometry>
        </mxCell>
        <mxCell id="H4OsGfkR3s9A8N3g6v4s-38" value="redirect(&quot;/admin&quot;)" style="edgeLabel;html=1;align=center;verticalAlign=middle;resizable=0;points=[];" connectable="0" vertex="1" parent="H4OsGfkR3s9A8N3g6v4s-36">
          <mxGeometry x="0.7156" y="1" relative="1" as="geometry">
            <mxPoint x="-9" y="63" as="offset" />
          </mxGeometry>
        </mxCell>
        <mxCell id="H4OsGfkR3s9A8N3g6v4s-39" value="" style="endArrow=none;startArrow=open;endFill=0;startFill=0;endSize=8;html=1;verticalAlign=bottom;dashed=1;labelBackgroundColor=none;rounded=0;entryX=0.006;entryY=0.585;entryDx=0;entryDy=0;entryPerimeter=0;exitX=0.921;exitY=0.692;exitDx=0;exitDy=0;exitPerimeter=0;" edge="1" parent="H4OsGfkR3s9A8N3g6v4s-32" source="H4OsGfkR3s9A8N3g6v4s-43">
          <mxGeometry width="160" relative="1" as="geometry">
            <mxPoint x="144" y="123" as="sourcePoint" />
            <mxPoint x="814" y="120" as="targetPoint" />
          </mxGeometry>
        </mxCell>
        <mxCell id="H4OsGfkR3s9A8N3g6v4s-40" value="" style="html=1;points=[];perimeter=orthogonalPerimeter;" vertex="1" parent="H4OsGfkR3s9A8N3g6v4s-27">
          <mxGeometry x="410" y="160" width="20" height="230" as="geometry" />
        </mxCell>
        <mxCell id="H4OsGfkR3s9A8N3g6v4s-41" value="" style="endArrow=open;startArrow=none;endFill=0;startFill=0;endSize=8;html=1;verticalAlign=bottom;labelBackgroundColor=none;strokeWidth=1;rounded=0;exitX=1.069;exitY=0.095;exitDx=0;exitDy=0;exitPerimeter=0;" edge="1" parent="H4OsGfkR3s9A8N3g6v4s-1" source="H4OsGfkR3s9A8N3g6v4s-31">
          <mxGeometry width="160" relative="1" as="geometry">
            <mxPoint x="746" y="660" as="sourcePoint" />
            <mxPoint x="890" y="580" as="targetPoint" />
          </mxGeometry>
        </mxCell>
        <mxCell id="H4OsGfkR3s9A8N3g6v4s-42" value="isAdmin()" style="edgeLabel;html=1;align=center;verticalAlign=middle;resizable=0;points=[];" connectable="0" vertex="1" parent="H4OsGfkR3s9A8N3g6v4s-41">
          <mxGeometry x="0.3353" y="2" relative="1" as="geometry">
            <mxPoint y="-8" as="offset" />
          </mxGeometry>
        </mxCell>
        <mxCell id="H4OsGfkR3s9A8N3g6v4s-43" value="" style="html=1;points=[];perimeter=orthogonalPerimeter;" vertex="1" parent="H4OsGfkR3s9A8N3g6v4s-1">
          <mxGeometry x="203.75" y="680" width="12.5" height="120" as="geometry" />
        </mxCell>
      </root>
    </mxGraphModel>
  </diagram>
</mxfile>
